<svg width="537" height="490" fill="none" xmlns="http://www.w3.org/2000/svg"><g opacity=".8" stroke-width="1.5"><path stroke="url(#a)" d="M121.746 1h97.752v97.768h-97.752z"/><path d="M219.498 294.255v-97.768h-97.752v97.768" stroke="url(#b)"/><path stroke="url(#c)" d="M219.504 98.814h97.752v97.768h-97.752z"/><path d="M24 98.814h97.752v97.768H24" stroke="url(#d)"/><path stroke="url(#e)" d="M317.492 1h97.752v97.768h-97.752z"/><path d="M415.244 294.255v-97.768h-97.752v97.768" stroke="url(#f)"/><path stroke="url(#g)" d="M415.25 98.814h97.752v97.768H415.25z"/><path d="M219.746 98.814h97.752v97.768h-97.752" stroke="url(#h)"/><path stroke="url(#i)" d="M317.492 196.744h97.752v97.768h-97.752z"/><path d="M415.244 489.999v-97.768h-97.752v97.768" stroke="url(#j)"/><path stroke="url(#k)" d="M415.25 294.558h97.752v97.768H415.25z"/><path d="M219.746 294.558h97.752v97.769h-97.752" stroke="url(#l)"/><path stroke="url(#m)" d="M121.746 196.744h97.752v97.768h-97.752z"/><path d="M219.498 489.999v-97.768h-97.752v97.768" stroke="url(#n)"/><path stroke="url(#o)" d="M219.504 294.558h97.752v97.768h-97.752z"/><path d="M24 294.558h97.752v97.768H24" stroke="url(#p)"/></g><g filter="url(#q)"><rect x="122" y="99" width="293" height="293" rx="8" fill="#fff"/></g><path d="M164.584 151v-9.904h-3.376v-1.152h8v1.152h-3.344V151h-1.28zm9.062.16c-.896 0-1.595-.155-2.096-.464-.491-.309-.837-.779-1.04-1.408-.192-.629-.288-1.424-.288-2.384 0-.917.107-1.675.32-2.272.224-.597.587-1.045 1.088-1.344.501-.299 1.173-.448 2.016-.448.853 0 1.531.149 2.032.448.501.299.859.747 1.072 1.344.224.597.336 1.355.336 2.272 0 .96-.101 1.755-.304 2.384-.192.629-.539 1.099-1.04 1.408-.491.309-1.189.464-2.096.464zm0-1.072c.619 0 1.083-.107 1.392-.32.309-.224.512-.571.608-1.04.107-.469.16-1.077.16-1.824 0-.736-.064-1.323-.192-1.76-.128-.437-.347-.752-.656-.944-.309-.192-.747-.288-1.312-.288-.555 0-.992.096-1.312.288-.309.192-.528.507-.656.944-.128.437-.192 1.024-.192 1.76 0 .747.048 1.355.144 1.824.107.469.315.816.624 1.04.309.213.773.32 1.392.32zm8.021 1.088c-.555 0-.998-.085-1.328-.256-.32-.171-.55-.464-.688-.88-.139-.427-.208-1.024-.208-1.792v-4.176h-1.136V143h1.136v-2.448h1.232V143h2.512v1.072h-2.512v3.808c0 .565.021 1.008.064 1.328.053.309.16.528.32.656s.41.192.752.192c.106 0 .245-.005.416-.016l.512-.032c.181-.021.341-.037.48-.048l.08 1.04-.832.112c-.32.043-.587.064-.8.064zm4.729-.016c-.736 0-1.296-.208-1.68-.624-.384-.416-.576-1.024-.576-1.824 0-.523.091-.949.272-1.28.181-.331.453-.581.816-.752.373-.181.832-.293 1.376-.336l2.464-.24v-.688c0-.544-.123-.928-.368-1.152-.235-.224-.587-.336-1.056-.336-.267 0-.587.011-.96.032a36.164 36.164 0 0 0-2.048.176l-.064-.944a17.814 17.814 0 0 1 2.064-.288c.395-.043.757-.064 1.088-.064.608 0 1.104.096 1.488.288.384.181.661.464.832.848.181.373.272.853.272 1.44v4.048c.021.235.112.405.272.512.171.107.384.176.64.208l-.048.976c-.235 0-.448-.016-.64-.048a2.896 2.896 0 0 1-.544-.112 2.673 2.673 0 0 1-.4-.192 2.607 2.607 0 0 1-.352-.272 8.129 8.129 0 0 1-.784.272 8.2 8.2 0 0 1-1.008.24 5.054 5.054 0 0 1-1.056.112zm.208-1.04c.288 0 .587-.027.896-.08a9.55 9.55 0 0 0 .88-.192c.277-.075.507-.144.688-.208v-2.608l-2.32.224c-.48.043-.827.181-1.04.416-.203.235-.304.571-.304 1.008 0 .448.101.8.304 1.056.203.256.501.384.896.384zm6.175.88v-11.472h1.232V151h-1.232zm10.114.16c-.842 0-1.504-.139-1.984-.416-.48-.288-.821-.747-1.024-1.376-.192-.629-.288-1.461-.288-2.496 0-.971.107-1.749.32-2.336.224-.597.582-1.029 1.072-1.296.491-.267 1.131-.4 1.92-.4.182 0 .4.016.656.048.267.021.539.053.816.096.278.032.518.064.72.096l-.048 1.024a23.708 23.708 0 0 0-.624-.064 17.085 17.085 0 0 0-.688-.048 6.203 6.203 0 0 0-.56-.032c-.608 0-1.082.096-1.424.288-.33.192-.565.501-.704.928-.128.416-.192.981-.192 1.696 0 .779.059 1.403.176 1.872.118.459.342.789.672.992.331.203.822.304 1.472.304.15 0 .336-.005.56-.016l.704-.064c.246-.021.459-.037.64-.048l.032 1.024a22.471 22.471 0 0 1-1.552.176c-.266.032-.49.048-.672.048zm7.081 0c-.896 0-1.595-.155-2.096-.464-.491-.309-.837-.779-1.04-1.408-.192-.629-.288-1.424-.288-2.384 0-.917.107-1.675.32-2.272.224-.597.587-1.045 1.088-1.344.501-.299 1.173-.448 2.016-.448.853 0 1.531.149 2.032.448.501.299.859.747 1.072 1.344.224.597.336 1.355.336 2.272 0 .96-.101 1.755-.304 2.384-.192.629-.539 1.099-1.04 1.408-.491.309-1.189.464-2.096.464zm0-1.072c.619 0 1.083-.107 1.392-.32.309-.224.512-.571.608-1.04.107-.469.16-1.077.16-1.824 0-.736-.064-1.323-.192-1.76-.128-.437-.347-.752-.656-.944-.309-.192-.747-.288-1.312-.288-.555 0-.992.096-1.312.288-.309.192-.528.507-.656.944-.128.437-.192 1.024-.192 1.76 0 .747.048 1.355.144 1.824.107.469.315.816.624 1.04.309.213.773.32 1.392.32zm7.893 1.072c-.246 0-.544-.016-.896-.048a32.03 32.03 0 0 1-1.024-.112l-.912-.144.064-1.072c.266.032.565.069.896.112.341.043.672.08.992.112.32.021.576.032.768.032.437 0 .8-.037 1.088-.112.288-.085.506-.224.656-.416.149-.192.224-.464.224-.816 0-.267-.059-.475-.176-.624-.107-.149-.315-.272-.624-.368-.299-.096-.736-.187-1.312-.272a9.21 9.21 0 0 1-1.504-.352c-.395-.149-.688-.368-.88-.656-.192-.288-.288-.699-.288-1.232 0-.597.138-1.067.416-1.408a2.207 2.207 0 0 1 1.072-.72 4.382 4.382 0 0 1 1.392-.224c.298 0 .624.016.976.048.362.032.714.075 1.056.128.341.043.634.085.88.128l-.032 1.072a12.61 12.61 0 0 0-.896-.112 16.17 16.17 0 0 0-1.024-.096 9.764 9.764 0 0 0-.896-.048c-.32 0-.608.037-.864.112a1.15 1.15 0 0 0-.608.352c-.15.171-.224.411-.224.72 0 .235.053.427.16.576.106.139.309.256.608.352.298.096.73.192 1.296.288.661.107 1.189.24 1.584.4.405.16.698.384.88.672.181.288.272.693.272 1.216 0 .939-.278 1.595-.832 1.968-.555.363-1.318.544-2.288.544zm7.581.016c-.555 0-.997-.085-1.328-.256-.32-.171-.549-.464-.688-.88-.139-.427-.208-1.024-.208-1.792v-4.176h-1.136V143h1.136v-2.448h1.232V143h2.512v1.072h-2.512v3.808c0 .565.021 1.008.064 1.328.053.309.16.528.32.656s.411.192.752.192c.107 0 .245-.005.416-.016l.512-.032c.181-.021.341-.037.48-.048l.08 1.04-.832.112c-.32.043-.587.064-.8.064zm-59.318 30.022c-1.548 0-2.682-.534-3.402-1.602-.72-1.068-1.08-2.574-1.08-4.518 0-1.152.114-2.118.342-2.898.24-.792.57-1.422.99-1.89.432-.48.942-.828 1.53-1.044a5.6 5.6 0 0 1 1.944-.324c.372 0 .774.024 1.206.072.444.048.876.108 1.296.18.42.06.774.12 1.062.18l-.198 1.854-.954-.09a31.157 31.157 0 0 0-1.17-.09 13.33 13.33 0 0 0-1.17-.054c-.816 0-1.428.258-1.836.774-.408.504-.624 1.23-.648 2.178.12-.036.27-.078.45-.126.192-.06.396-.12.612-.18.228-.072.456-.126.684-.162a3.15 3.15 0 0 1 .648-.072c1.332 0 2.328.312 2.988.936.672.612 1.008 1.578 1.008 2.898 0 .888-.174 1.626-.522 2.214a3.315 3.315 0 0 1-1.476 1.332c-.636.288-1.404.432-2.304.432zm0-2.016c.66 0 1.152-.168 1.476-.504.336-.348.504-.834.504-1.458s-.168-1.08-.504-1.368c-.336-.3-.81-.45-1.422-.45-.252 0-.516.024-.792.072a4.863 4.863 0 0 0-.774.198c-.24.072-.438.144-.594.216a7.31 7.31 0 0 0 .216 1.71c.132.492.348.882.648 1.17.312.276.726.414 1.242.414zm9.714 2.016-2.376-.576 3.888-8.784v-.468h-5.166v-2.25h7.686v2.682l-4.032 9.396zm6.222-.198v-1.944l2.718-2.79c.516-.528.96-.99 1.332-1.386.372-.408.654-.792.846-1.152a2.3 2.3 0 0 0 .306-1.152c0-.6-.168-1.002-.504-1.206-.336-.216-.876-.324-1.62-.324-.3 0-.63.018-.99.054-.36.036-.708.078-1.044.126-.324.048-.606.096-.846.144l-.126-1.908a16.624 16.624 0 0 1 2.25-.45 8.992 8.992 0 0 1 1.368-.108c1.296 0 2.286.276 2.97.828.684.54 1.026 1.38 1.026 2.52 0 .624-.09 1.176-.27 1.656-.168.48-.438.942-.81 1.386-.36.432-.84.906-1.44 1.422l-2.376 2.268h5.058V181h-7.848zm13.184-6.732v-1.098h8.064v1.098h-8.064zm0 2.592v-1.098h8.064v1.098h-8.064zm5.562 4.338c-.924 0-1.686-.12-2.286-.36a3.109 3.109 0 0 1-1.422-1.098c-.336-.504-.576-1.14-.72-1.908-.132-.78-.198-1.704-.198-2.772 0-1.068.066-1.986.198-2.754.144-.78.39-1.416.738-1.908a3.109 3.109 0 0 1 1.422-1.098c.612-.252 1.392-.378 2.34-.378.372 0 .768.024 1.188.072.42.048.822.108 1.206.18.396.06.732.12 1.008.18l-.072 1.926a9.674 9.674 0 0 0-.882-.126c-.336-.036-.69-.066-1.062-.09-.36-.036-.69-.054-.99-.054-.552 0-1.002.078-1.35.234a1.679 1.679 0 0 0-.81.684c-.18.312-.306.732-.378 1.26-.06.516-.09 1.14-.09 1.872 0 .744.03 1.374.09 1.89.072.516.198.936.378 1.26.192.312.462.54.81.684.348.144.804.216 1.368.216.468 0 .978-.024 1.53-.072a33.55 33.55 0 0 0 1.404-.144l.054 1.89c-.276.072-.606.138-.99.198s-.792.108-1.224.144a11.41 11.41 0 0 1-1.26.072zm6.852.486-2.268-.594 5.22-12.924 2.268.594-5.22 12.924zm8.87 3.114 1.152-3.798h-1.926l-2.142-9.036h2.502l1.602 7.002h.468l1.602-7.002h2.412l-3.114 12.834h-2.556zm10.581-3.6c-.996 0-1.788-.168-2.376-.504-.576-.336-.99-.846-1.242-1.53s-.378-1.542-.378-2.574c0-1.116.156-2.028.468-2.736.324-.708.792-1.23 1.404-1.566.612-.348 1.368-.522 2.268-.522 1.332 0 2.334.336 3.006 1.008.684.672 1.026 1.734 1.026 3.186l-.108 1.332h-5.652c.012.672.15 1.176.414 1.512.264.336.72.504 1.368.504.372 0 .78-.006 1.224-.018l1.314-.072c.444-.024.822-.048 1.134-.072l.054 1.674c-.3.048-.678.102-1.134.162-.456.06-.93.108-1.422.144-.48.048-.936.072-1.368.072zm-1.584-5.436h3.366c0-.816-.132-1.386-.396-1.71-.252-.324-.666-.486-1.242-.486-.564 0-.996.168-1.296.504-.288.336-.432.9-.432 1.692zm9.71 5.436c-.936 0-1.644-.234-2.124-.702-.468-.48-.702-1.2-.702-2.16 0-.672.12-1.194.36-1.566.24-.384.594-.66 1.062-.828.48-.18 1.062-.288 1.746-.324l2.196-.198v-.54c0-.432-.108-.732-.324-.9-.216-.18-.534-.27-.954-.27-.336 0-.726.012-1.17.036-.432.024-.864.054-1.296.09-.42.036-.786.072-1.098.108l-.072-1.692c.312-.072.684-.144 1.116-.216.444-.084.906-.15 1.386-.198.48-.048.924-.072 1.332-.072.768 0 1.41.096 1.926.288.516.192.906.51 1.17.954.264.432.396 1.02.396 1.764v4.122a.54.54 0 0 0 .27.396c.156.084.336.144.54.18l-.054 1.656c-.288.012-.57.018-.846.018s-.51-.018-.702-.054a2.113 2.113 0 0 1-.72-.216 2.147 2.147 0 0 1-.468-.342c-.192.084-.45.18-.774.288a8.058 8.058 0 0 1-1.062.27c-.372.072-.75.108-1.134.108zm.576-1.782c.228 0 .468-.024.72-.072.252-.048.486-.102.702-.162a4.99 4.99 0 0 0 .54-.198v-2.07l-1.836.162c-.396.036-.684.156-.864.36-.168.192-.252.468-.252.828 0 .36.078.642.234.846.168.204.42.306.756.306zm6.487 1.584v-9.036h2.394v1.062c.204-.156.456-.318.756-.486.3-.18.624-.342.972-.486.36-.156.702-.258 1.026-.306v2.322a5.716 5.716 0 0 0-.99.252c-.348.108-.678.228-.99.36-.3.132-.558.252-.774.36V181h-2.394z" fill="#39145D"/><rect x="167" y="259" width="28" height="74" rx="4" fill="#E4C9FF"/><rect x="213" y="219" width="28" height="114" rx="4" fill="#E4C9FF"/><rect x="259" y="246" width="27" height="87" rx="4" fill="#E4C9FF"/><rect x="305" y="199" width="27" height="134" rx="4" fill="#E4C9FF"/><rect x="350" y="267" width="27" height="66" rx="4" fill="#E4C9FF"/><path d="M166.63 358v-6.83h1.38v2.85h2.65v-2.85h1.38V358h-1.38v-2.82h-2.65V358h-1.38zm8.75.11c-.567 0-1.023-.093-1.37-.28a1.627 1.627 0 0 1-.74-.86c-.153-.393-.23-.9-.23-1.52 0-.6.08-1.087.24-1.46.16-.38.413-.66.76-.84.347-.187.793-.28 1.34-.28.553 0 1 .093 1.34.28.347.18.6.46.76.84.167.373.25.86.25 1.46 0 .62-.077 1.127-.23 1.52a1.615 1.615 0 0 1-.75.86c-.34.187-.797.28-1.37.28zm0-1.1c.28 0 .49-.05.63-.15.14-.107.233-.273.28-.5.053-.233.08-.537.08-.91 0-.367-.03-.657-.09-.87-.06-.22-.16-.377-.3-.47-.14-.093-.34-.14-.6-.14-.253 0-.453.047-.6.14-.14.093-.24.25-.3.47-.06.213-.09.503-.09.87 0 .373.023.677.07.91.053.227.15.393.29.5.14.1.35.15.63.15zm3.26.99v-5.02h1.33v.32a3.47 3.47 0 0 1 .62-.28c.26-.1.507-.15.74-.15.307 0 .557.043.75.13.193.08.353.2.48.36.12-.073.27-.147.45-.22.18-.073.377-.137.59-.19.213-.053.42-.08.62-.08.493 0 .87.087 1.13.26.26.173.44.447.54.82.1.367.15.847.15 1.44V358h-1.33v-2.49c0-.347-.02-.627-.06-.84-.033-.22-.107-.38-.22-.48-.107-.1-.27-.15-.49-.15-.193 0-.383.027-.57.08a2.64 2.64 0 0 0-.44.16c.033.14.057.32.07.54.02.22.03.45.03.69V358h-1.33v-2.47c0-.353-.02-.64-.06-.86-.033-.22-.107-.38-.22-.48-.113-.1-.277-.15-.49-.15-.187 0-.37.027-.55.08-.173.053-.31.107-.41.16V358h-1.33zm10.487.11c-.553 0-.993-.093-1.32-.28-.32-.187-.55-.47-.69-.85-.14-.38-.21-.857-.21-1.43 0-.62.087-1.127.26-1.52.18-.393.44-.683.78-.87.34-.193.76-.29 1.26-.29.74 0 1.297.187 1.67.56.38.373.57.963.57 1.77l-.06.74h-3.14c.007.373.083.653.23.84.147.187.4.28.76.28.207 0 .433-.003.68-.01l.73-.04c.247-.013.457-.027.63-.04l.03.93c-.167.027-.377.057-.63.09-.253.033-.517.06-.79.08-.267.027-.52.04-.76.04zm-.88-3.02h1.87c0-.453-.073-.77-.22-.95-.14-.18-.37-.27-.69-.27-.313 0-.553.093-.72.28-.16.187-.24.5-.24.94zm33.843 3.02c-.533 0-.973-.067-1.32-.2-.34-.14-.61-.353-.81-.64-.2-.287-.34-.65-.42-1.09-.073-.447-.11-.977-.11-1.59 0-.62.037-1.15.11-1.59.08-.447.22-.813.42-1.1.2-.287.473-.5.82-.64.353-.14.803-.21 1.35-.21.22 0 .45.013.69.04.24.027.47.06.69.1.227.033.42.07.58.11l-.04 1.1c-.133-.027-.3-.05-.5-.07a9.298 9.298 0 0 0-1.19-.08c-.32 0-.58.04-.78.12a.947.947 0 0 0-.47.4c-.107.187-.18.43-.22.73-.04.293-.06.657-.06 1.09 0 .427.02.79.06 1.09.04.293.113.533.22.72.107.18.26.313.46.4.207.08.473.12.8.12.267 0 .56-.013.88-.04.327-.033.597-.063.81-.09l.03 1.09c-.16.033-.35.07-.57.11-.22.033-.453.06-.7.08-.247.027-.49.04-.73.04zm4.17 0c-.52 0-.913-.13-1.18-.39-.26-.267-.39-.667-.39-1.2 0-.373.067-.663.2-.87.134-.213.33-.367.59-.46.267-.1.59-.16.97-.18l1.22-.11v-.3c0-.24-.06-.407-.18-.5-.12-.1-.296-.15-.53-.15-.186 0-.403.007-.65.02a24.866 24.866 0 0 0-1.33.11l-.04-.94c.174-.04.38-.08.62-.12a8.97 8.97 0 0 1 1.51-.15c.427 0 .784.053 1.07.16.287.107.504.283.65.53.147.24.22.567.22.98v2.29a.303.303 0 0 0 .15.22.99.99 0 0 0 .3.1l-.03.92c-.16.007-.316.01-.47.01-.153 0-.283-.01-.39-.03a1.18 1.18 0 0 1-.4-.12 1.207 1.207 0 0 1-.26-.19 5.078 5.078 0 0 1-1.02.31c-.206.04-.416.06-.63.06zm.32-.99c.127 0 .26-.013.4-.04a2.79 2.79 0 0 0 .69-.2v-1.15l-1.02.09c-.22.02-.38.087-.48.2-.093.107-.14.26-.14.46s.044.357.13.47c.094.113.234.17.42.17zm3.605.88v-5.02h1.33v.59c.113-.087.253-.177.42-.27a4 4 0 0 1 .54-.27c.2-.087.39-.143.57-.17v1.29a3.153 3.153 0 0 0-.55.14 5.888 5.888 0 0 0-.98.4V358h-1.33zm21.445 0v-6.83h2.57c.567 0 1.037.08 1.41.24.373.153.653.403.84.75.193.347.29.81.29 1.39 0 .58-.097 1.053-.29 1.42a1.75 1.75 0 0 1-.84.8c-.373.167-.843.25-1.41.25h-1.19V358h-1.38zm1.38-3.11h1.15c.42 0 .72-.11.9-.33.18-.227.27-.56.27-1 0-.453-.09-.777-.27-.97-.18-.193-.48-.29-.9-.29h-1.15v2.59zm6.566 3.22c-.553 0-.993-.093-1.32-.28-.32-.187-.55-.47-.69-.85-.14-.38-.21-.857-.21-1.43 0-.62.087-1.127.26-1.52.18-.393.44-.683.78-.87.34-.193.76-.29 1.26-.29.74 0 1.297.187 1.67.56.38.373.57.963.57 1.77l-.06.74h-3.14c.007.373.083.653.23.84.147.187.4.28.76.28.207 0 .433-.003.68-.01l.73-.04c.247-.013.457-.027.63-.04l.03.93c-.167.027-.377.057-.63.09-.253.033-.517.06-.79.08-.267.027-.52.04-.76.04zm-.88-3.02h1.87c0-.453-.073-.77-.22-.95-.14-.18-.37-.27-.69-.27-.313 0-.553.093-.72.28-.16.187-.24.5-.24.94zm4.084 2.91v-5.02h1.33v.59c.114-.087.254-.177.42-.27.167-.1.347-.19.54-.27.2-.087.39-.143.57-.17v1.29a3.198 3.198 0 0 0-.55.14 6.103 6.103 0 0 0-.98.4V358h-1.33zm5.365.11c-.22 0-.457-.013-.71-.04a9.646 9.646 0 0 1-1.25-.18l.04-.99c.173.02.367.043.58.07.22.027.433.05.64.07.213.013.387.02.52.02.2 0 .363-.017.49-.05a.589.589 0 0 0 .3-.16c.067-.08.1-.193.1-.34 0-.113-.03-.2-.09-.26-.053-.06-.16-.11-.32-.15a5.295 5.295 0 0 0-.68-.14 4.016 4.016 0 0 1-.93-.23c-.24-.1-.417-.247-.53-.44-.113-.2-.17-.47-.17-.81 0-.413.09-.737.27-.97.18-.233.42-.397.72-.49.3-.1.627-.15.98-.15.233 0 .473.013.72.04.247.02.48.047.7.08.22.033.403.067.55.1l-.04 1.01a8.519 8.519 0 0 0-.58-.07 10.503 10.503 0 0 0-1.2-.08c-.153 0-.29.017-.41.05a.558.558 0 0 0-.28.14c-.06.067-.09.167-.09.3 0 .093.027.17.08.23.053.06.153.113.3.16.153.04.373.08.66.12.413.06.743.143.99.25.247.107.423.26.53.46.113.2.17.47.17.81 0 .607-.18 1.033-.54 1.28-.353.24-.86.36-1.52.36zm5.096 0c-.566 0-1.023-.093-1.37-.28a1.631 1.631 0 0 1-.74-.86c-.153-.393-.23-.9-.23-1.52 0-.6.08-1.087.24-1.46.16-.38.414-.66.76-.84.347-.187.794-.28 1.34-.28.554 0 1 .093 1.34.28.347.18.6.46.76.84.167.373.25.86.25 1.46 0 .62-.076 1.127-.23 1.52a1.615 1.615 0 0 1-.75.86c-.34.187-.796.28-1.37.28zm0-1.1c.28 0 .49-.05.63-.15.14-.107.234-.273.28-.5.054-.233.08-.537.08-.91 0-.367-.03-.657-.09-.87-.06-.22-.16-.377-.3-.47-.14-.093-.34-.14-.6-.14-.253 0-.453.047-.6.14-.14.093-.24.25-.3.47-.06.213-.09.503-.09.87 0 .373.024.677.07.91.054.227.15.393.29.5.14.1.35.15.63.15zm3.26.99v-5.02h1.33v.32c.107-.067.237-.13.39-.19.154-.067.314-.123.48-.17.174-.047.34-.07.5-.07.467 0 .827.083 1.08.25.26.16.444.427.55.8.107.367.16.86.16 1.48v2.6h-1.34v-2.53c0-.347-.02-.623-.06-.83-.04-.213-.116-.367-.23-.46-.113-.093-.28-.14-.5-.14-.12 0-.246.013-.38.04a2 2 0 0 0-.65.21V358h-1.33zm6.838.11c-.52 0-.914-.13-1.18-.39-.26-.267-.39-.667-.39-1.2 0-.373.066-.663.2-.87.133-.213.33-.367.59-.46.266-.1.59-.16.97-.18l1.22-.11v-.3c0-.24-.06-.407-.18-.5-.12-.1-.297-.15-.53-.15-.187 0-.404.007-.65.02a24.866 24.866 0 0 0-1.33.11l-.04-.94c.173-.04.38-.08.62-.12a8.859 8.859 0 0 1 1.51-.15c.426 0 .783.053 1.07.16.286.107.503.283.65.53.146.24.22.567.22.98v2.29a.298.298 0 0 0 .15.22c.086.047.186.08.3.1l-.03.92c-.16.007-.317.01-.47.01-.154 0-.284-.01-.39-.03a1.167 1.167 0 0 1-.4-.12 1.159 1.159 0 0 1-.26-.19c-.107.047-.25.1-.43.16s-.377.11-.59.15c-.207.04-.417.06-.63.06zm.32-.99c.126 0 .26-.013.4-.04.14-.027.27-.057.39-.09.126-.04.226-.077.3-.11v-1.15l-1.02.09c-.22.02-.38.087-.48.2-.094.107-.14.26-.14.46s.043.357.13.47c.093.113.233.17.42.17zm3.644.88v-7.07h1.33V358h-1.33zm20.327 0v-6.83h2.57c.567 0 1.037.08 1.41.24.373.153.653.403.84.75.193.347.29.81.29 1.39 0 .58-.097 1.053-.29 1.42a1.75 1.75 0 0 1-.84.8c-.373.167-.843.25-1.41.25h-1.19V358h-1.38zm1.38-3.11h1.15c.42 0 .72-.11.9-.33.18-.227.27-.56.27-1 0-.453-.09-.777-.27-.97-.18-.193-.48-.29-.9-.29h-1.15v2.59zm6.566 3.22c-.553 0-.993-.093-1.32-.28-.32-.187-.55-.47-.69-.85-.14-.38-.21-.857-.21-1.43 0-.62.087-1.127.26-1.52.18-.393.44-.683.78-.87.34-.193.76-.29 1.26-.29.74 0 1.297.187 1.67.56.38.373.57.963.57 1.77l-.06.74h-3.14c.007.373.083.653.23.84.147.187.4.28.76.28.207 0 .433-.003.68-.01l.73-.04c.247-.013.457-.027.63-.04l.03.93c-.167.027-.377.057-.63.09-.253.033-.517.06-.79.08-.267.027-.52.04-.76.04zm-.88-3.02h1.87c0-.453-.073-.77-.22-.95-.14-.18-.37-.27-.69-.27-.313 0-.553.093-.72.28-.16.187-.24.5-.24.94zm5.844 3.03c-.366 0-.663-.053-.89-.16a.96.96 0 0 1-.49-.55c-.093-.267-.14-.637-.14-1.11v-2.21h-.59v-1.11h.59v-1.33h1.33v1.33h1.28v1.11h-1.28v1.86c0 .26.01.463.03.61.027.147.08.25.16.31s.204.09.37.09c.047 0 .117-.003.21-.01l.28-.02a5.96 5.96 0 0 0 .23-.02l.04 1.07c-.16.027-.353.057-.58.09-.22.033-.403.05-.55.05zm3.644-.01c-.22 0-.456-.013-.71-.04a9.812 9.812 0 0 1-1.25-.18l.04-.99c.174.02.367.043.58.07.22.027.434.05.64.07.214.013.387.02.52.02.2 0 .364-.017.49-.05a.58.58 0 0 0 .3-.16c.067-.08.1-.193.1-.34 0-.113-.03-.2-.09-.26-.053-.06-.16-.11-.32-.15a5.295 5.295 0 0 0-.68-.14 4.016 4.016 0 0 1-.93-.23c-.24-.1-.416-.247-.53-.44-.113-.2-.17-.47-.17-.81 0-.413.09-.737.27-.97.18-.233.42-.397.72-.49.3-.1.627-.15.98-.15.234 0 .474.013.72.04.247.02.48.047.7.08.22.033.404.067.55.1l-.04 1.01a8.441 8.441 0 0 0-.58-.07 10.503 10.503 0 0 0-1.2-.08c-.153 0-.29.017-.41.05a.558.558 0 0 0-.28.14c-.06.067-.09.167-.09.3 0 .093.027.17.08.23.054.06.154.113.3.16.154.04.374.08.66.12.414.06.744.143.99.25.247.107.424.26.53.46.114.2.17.47.17.81 0 .607-.18 1.033-.54 1.28-.353.24-.86.36-1.52.36zm29.136 0c-.727 0-1.303-.127-1.73-.38-.42-.26-.723-.65-.91-1.17-.18-.52-.27-1.17-.27-1.95 0-.787.09-1.443.27-1.97.187-.527.49-.923.91-1.19.427-.267 1.003-.4 1.73-.4.727 0 1.3.133 1.72.4.427.267.73.663.91 1.19.187.527.28 1.183.28 1.97 0 .793-.093 1.45-.28 1.97-.18.52-.483.907-.91 1.16-.42.247-.993.37-1.72.37zm0-1.16c.42 0 .737-.083.95-.25.22-.173.367-.433.44-.78.073-.353.11-.79.11-1.31s-.04-.957-.12-1.31c-.073-.36-.217-.63-.43-.81-.213-.187-.53-.28-.95-.28-.413 0-.73.093-.95.28-.213.18-.36.45-.44.81-.08.353-.12.79-.12 1.31 0 .513.037.943.11 1.29.08.347.227.61.44.79.22.173.54.26.96.26zm5.631 1.17c-.367 0-.664-.053-.89-.16a.956.956 0 0 1-.49-.55c-.094-.267-.14-.637-.14-1.11v-2.21h-.59v-1.11h.59v-1.33h1.33v1.33h1.28v1.11h-1.28v1.86c0 .26.01.463.03.61.026.147.08.25.16.31s.203.09.37.09c.046 0 .116-.003.21-.01l.28-.02c.093-.007.17-.013.23-.02l.04 1.07c-.16.027-.354.057-.58.09-.22.033-.404.05-.55.05zm1.833-.12v-7.07h1.33v2.23c.167-.06.38-.123.64-.19s.5-.1.72-.1c.467 0 .83.083 1.09.25.26.16.44.423.54.79.107.367.16.853.16 1.46V358h-1.34v-2.53c0-.347-.02-.623-.06-.83-.04-.213-.116-.367-.23-.46-.106-.093-.273-.14-.5-.14-.18 0-.366.023-.56.07-.186.047-.34.09-.46.13V358h-1.33zm7.558.11c-.554 0-.994-.093-1.32-.28-.32-.187-.55-.47-.69-.85-.14-.38-.21-.857-.21-1.43 0-.62.086-1.127.26-1.52.18-.393.44-.683.78-.87.34-.193.76-.29 1.26-.29.74 0 1.296.187 1.67.56.38.373.57.963.57 1.77l-.06.74h-3.14c.006.373.083.653.23.84.146.187.4.28.76.28.206 0 .433-.003.68-.01l.73-.04c.246-.013.456-.027.63-.04l.03.93c-.167.027-.377.057-.63.09-.254.033-.517.06-.79.08-.267.027-.52.04-.76.04zm-.88-3.02h1.87c0-.453-.074-.77-.22-.95-.14-.18-.37-.27-.69-.27-.314 0-.554.093-.72.28-.16.187-.24.5-.24.94zm4.084 2.91v-5.02h1.33v.59c.113-.087.253-.177.42-.27.167-.1.347-.19.54-.27.2-.087.39-.143.57-.17v1.29a3.175 3.175 0 0 0-.55.14 5.994 5.994 0 0 0-.98.4V358h-1.33z" fill="#39145D"/><defs><linearGradient id="a" x1="187.6" y1="89.844" x2="187.6" y2="20.502" gradientUnits="userSpaceOnUse"><stop stop-color="#E4C9FF"/><stop offset="1" stop-color="#E4C9FF" stop-opacity="0"/></linearGradient><linearGradient id="h" x1="317.257" y1="141.127" x2="219.746" y2="141.127" gradientUnits="userSpaceOnUse"><stop stop-color="#E4C9FF"/><stop offset="1" stop-color="#E4C9FF" stop-opacity="0"/></linearGradient><linearGradient id="b" x1="170.622" y1="196.487" x2="170.622" y2="294.255" gradientUnits="userSpaceOnUse"><stop stop-color="#E4C9FF"/><stop offset="1" stop-color="#E4C9FF" stop-opacity="0"/></linearGradient><linearGradient id="c" x1="219.744" y1="147.689" x2="310.032" y2="147.689" gradientUnits="userSpaceOnUse"><stop stop-color="#E4C9FF"/><stop offset="1" stop-color="#E4C9FF" stop-opacity="0"/></linearGradient><linearGradient id="d" x1="121.511" y1="141.127" x2="24" y2="141.127" gradientUnits="userSpaceOnUse"><stop stop-color="#E4C9FF"/><stop offset="1" stop-color="#E4C9FF" stop-opacity="0"/></linearGradient><linearGradient id="e" x1="383.346" y1="89.844" x2="383.346" y2="20.502" gradientUnits="userSpaceOnUse"><stop stop-color="#E4C9FF"/><stop offset="1" stop-color="#E4C9FF" stop-opacity="0"/></linearGradient><linearGradient id="f" x1="366.368" y1="196.487" x2="366.368" y2="294.255" gradientUnits="userSpaceOnUse"><stop stop-color="#E4C9FF"/><stop offset="1" stop-color="#E4C9FF" stop-opacity="0"/></linearGradient><linearGradient id="g" x1="415.49" y1="147.689" x2="505.778" y2="147.689" gradientUnits="userSpaceOnUse"><stop stop-color="#E4C9FF"/><stop offset="1" stop-color="#E4C9FF" stop-opacity="0"/></linearGradient><linearGradient id="p" x1="121.511" y1="336.872" x2="24" y2="336.872" gradientUnits="userSpaceOnUse"><stop stop-color="#E4C9FF"/><stop offset="1" stop-color="#E4C9FF" stop-opacity="0"/></linearGradient><linearGradient id="i" x1="383.346" y1="285.588" x2="383.346" y2="216.247" gradientUnits="userSpaceOnUse"><stop stop-color="#E4C9FF"/><stop offset="1" stop-color="#E4C9FF" stop-opacity="0"/></linearGradient><linearGradient id="j" x1="366.368" y1="392.231" x2="366.368" y2="489.999" gradientUnits="userSpaceOnUse"><stop stop-color="#E4C9FF"/><stop offset="1" stop-color="#E4C9FF" stop-opacity="0"/></linearGradient><linearGradient id="k" x1="415.49" y1="343.434" x2="505.778" y2="343.434" gradientUnits="userSpaceOnUse"><stop stop-color="#E4C9FF"/><stop offset="1" stop-color="#E4C9FF" stop-opacity="0"/></linearGradient><linearGradient id="l" x1="317.257" y1="336.872" x2="219.746" y2="336.872" gradientUnits="userSpaceOnUse"><stop stop-color="#E4C9FF"/><stop offset="1" stop-color="#E4C9FF" stop-opacity="0"/></linearGradient><linearGradient id="m" x1="187.6" y1="285.588" x2="187.6" y2="216.247" gradientUnits="userSpaceOnUse"><stop stop-color="#E4C9FF"/><stop offset="1" stop-color="#E4C9FF" stop-opacity="0"/></linearGradient><linearGradient id="n" x1="170.622" y1="392.231" x2="170.622" y2="489.999" gradientUnits="userSpaceOnUse"><stop stop-color="#E4C9FF"/><stop offset="1" stop-color="#E4C9FF" stop-opacity="0"/></linearGradient><linearGradient id="o" x1="219.744" y1="343.434" x2="310.032" y2="343.434" gradientUnits="userSpaceOnUse"><stop stop-color="#E4C9FF"/><stop offset="1" stop-color="#E4C9FF" stop-opacity="0"/></linearGradient><filter id="q" x="92" y="99" width="353" height="353" filterUnits="userSpaceOnUse" color-interpolation-filters="sRGB"><feFlood flood-opacity="0" result="BackgroundImageFix"/><feColorMatrix in="SourceAlpha" values="0 0 0 0 0 0 0 0 0 0 0 0 0 0 0 0 0 0 127 0" result="hardAlpha"/><feOffset dy="30"/><feGaussianBlur stdDeviation="15"/><feColorMatrix values="0 0 0 0 0.027451 0 0 0 0 0.117647 0 0 0 0 0.341176 0 0 0 0.05 0"/><feBlend in2="BackgroundImageFix" result="effect1_dropShadow_3049_3097"/><feBlend in="SourceGraphic" in2="effect1_dropShadow_3049_3097" result="shape"/></filter></defs></svg>