<svg width="72" height="72" fill="none" xmlns="http://www.w3.org/2000/svg"><g clip-path="url(#a)"><rect opacity=".2" width="72" height="72" rx="16" fill="#E4C9FF"/><path stroke="#fff" stroke-width="1.5" d="M16.664-23H56.33v39.673H16.664z"/><path d="M56.33 95.997V56.324H16.664v39.673" stroke="url(#b)" stroke-width="1.5"/><path stroke="#fff" stroke-width="1.5" d="M56.328 16.691h39.666v39.673H56.328z"/><path d="M-23 16.691h39.666v39.673H-23" stroke="url(#c)" stroke-width="1.5"/><g filter="url(#d)"><path fill="#fff" d="M16 16h40v41H16z"/></g><path fill-rule="evenodd" clip-rule="evenodd" d="m32.915 28.149-5.002 3.924A5 5 0 0 0 26 36.007v5.992a4 4 0 0 0 4 4h2a2 2 0 0 0 2-2v-2a1 1 0 0 1 1-1h2a1 1 0 0 1 1 1v2a2 2 0 0 0 2 2h2a4 4 0 0 0 4-4v-6a5 5 0 0 0-1.916-3.934l-4.998-3.918a5 5 0 0 0-6.171.002zm4.937 1.572 4.999 3.918A3 3 0 0 1 44 35.999v6a2 2 0 0 1-2 2h-2v-2a3 3 0 0 0-3-3h-2a3 3 0 0 0-3 3v2h-2a2 2 0 0 1-2-2v-5.992a3 3 0 0 1 1.148-2.36l5.002-3.925a3 3 0 0 1 3.702-.001z" fill="#391484"/></g><defs><linearGradient id="b" x1="36.497" y1="56.324" x2="36.497" y2="95.997" gradientUnits="userSpaceOnUse"><stop stop-color="#fff"/><stop offset="1" stop-color="#fff" stop-opacity="0"/></linearGradient><linearGradient id="c" x1="2.772" y1="36.817" x2="-16" y2="36.817" gradientUnits="userSpaceOnUse"><stop stop-color="#fff"/><stop offset="1" stop-color="#fff" stop-opacity="0"/></linearGradient><clipPath id="a"><path fill="#fff" d="M0 0h72v72H0z"/></clipPath><filter id="d" x="-14" y="16" width="100" height="101" filterUnits="userSpaceOnUse" color-interpolation-filters="sRGB"><feFlood flood-opacity="0" result="BackgroundImageFix"/><feColorMatrix in="SourceAlpha" values="0 0 0 0 0 0 0 0 0 0 0 0 0 0 0 0 0 0 127 0" result="hardAlpha"/><feOffset dy="30"/><feGaussianBlur stdDeviation="15"/><feColorMatrix values="0 0 0 0 0.027451 0 0 0 0 0.117647 0 0 0 0 0.341176 0 0 0 0.05 0"/><feBlend in2="BackgroundImageFix" result="effect1_dropShadow_3055_3225"/><feBlend in="SourceGraphic" in2="effect1_dropShadow_3055_3225" result="shape"/></filter></defs></svg>