<svg width="72" height="72" fill="none" xmlns="http://www.w3.org/2000/svg"><g clip-path="url(#a)"><rect opacity=".2" width="72" height="72" rx="16" fill="#E4C9FF"/><path stroke="#fff" stroke-width="1.5" d="M16.664-23H56.33v39.673H16.664z"/><path d="M56.33 95.997V56.324H16.664v39.673" stroke="url(#b)" stroke-width="1.5"/><path stroke="#fff" stroke-width="1.5" d="M56.328 16.691h39.666v39.673H56.328z"/><path d="M-23 16.691h39.666v39.673H-23" stroke="url(#c)" stroke-width="1.5"/><g filter="url(#d)"><path fill="#fff" d="M16 16h40v41H16z"/></g><path fill-rule="evenodd" clip-rule="evenodd" d="M27.91 37.004a1 1 0 1 1 .18 1.992 5.831 5.831 0 0 0-.856.141l-.293.078c-.498.127-.798.322-.88.543a1.092 1.092 0 0 0 .002.726c.045.125.345.349.972.576a1 1 0 0 1-.681 1.88c-1.129-.408-1.877-.967-2.17-1.77a3.088 3.088 0 0 1 0-2.1c.334-.914 1.082-1.446 2.025-1.727l.204-.057a7.807 7.807 0 0 1 1.498-.282zM43.974 37l.116.004a7.83 7.83 0 0 1 1.186.198l.277.075c1.072.273 1.905.813 2.265 1.793a3.1 3.1 0 0 1 0 2.1c-.357.976-1.175 1.508-2.253 1.796a1 1 0 0 1-.517-1.932c.512-.137.811-.331.891-.55a1.1 1.1 0 0 0 0-.726c-.08-.221-.38-.416-.913-.552a5.809 5.809 0 0 0-1.114-.21A1 1 0 0 1 43.973 37zM36 38c-4.481 0-7 1.26-7 4s2.519 4 7 4 7-1.26 7-4-2.519-4-7-4zm0 2c3.519 0 5 .74 5 2s-1.481 2-5 2-5-.74-5-2 1.481-2 5-2z" fill="#391484"/><path fill-rule="evenodd" clip-rule="evenodd" d="M36 26c-2.772 0-5 2.227-5 5 0 2.772 2.227 5 5 5s5-2.228 5-5c0-2.773-2.228-5-5-5zm0 2c1.668 0 3 1.332 3 3s-1.332 3-3 3-3-1.332-3-3 1.332-3 3-3zm-7 0a1 1 0 1 1 0 2 2 2 0 0 0-.15 3.995L29 34a1 1 0 1 1 0 2 4 4 0 0 1 0-8zm14 0a4 4 0 0 1 0 8 1 1 0 0 1-.117-1.993L43 34a2 2 0 0 0 0-4 1 1 0 1 1 0-2z" fill="#391484" opacity=".5"/></g><defs><linearGradient id="b" x1="36.497" y1="56.324" x2="36.497" y2="95.997" gradientUnits="userSpaceOnUse"><stop stop-color="#fff"/><stop offset="1" stop-color="#fff" stop-opacity="0"/></linearGradient><linearGradient id="c" x1="2.772" y1="36.817" x2="-16" y2="36.817" gradientUnits="userSpaceOnUse"><stop stop-color="#fff"/><stop offset="1" stop-color="#fff" stop-opacity="0"/></linearGradient><clipPath id="a"><path fill="#fff" d="M0 0h72v72H0z"/></clipPath><filter id="d" x="-14" y="16" width="100" height="101" filterUnits="userSpaceOnUse" color-interpolation-filters="sRGB"><feFlood flood-opacity="0" result="BackgroundImageFix"/><feColorMatrix in="SourceAlpha" values="0 0 0 0 0 0 0 0 0 0 0 0 0 0 0 0 0 0 127 0" result="hardAlpha"/><feOffset dy="30"/><feGaussianBlur stdDeviation="15"/><feColorMatrix values="0 0 0 0 0.027451 0 0 0 0 0.117647 0 0 0 0 0.341176 0 0 0 0.05 0"/><feBlend in2="BackgroundImageFix" result="effect1_dropShadow_3055_3207"/><feBlend in="SourceGraphic" in2="effect1_dropShadow_3055_3207" result="shape"/></filter></defs></svg>