<svg width="72" height="72" fill="none" xmlns="http://www.w3.org/2000/svg"><g clip-path="url(#a)"><rect opacity=".2" width="72" height="72" rx="16" fill="#E4C9FF"/><path stroke="#fff" stroke-width="1.5" d="M16.664-23H56.33v39.673H16.664z"/><path d="M56.33 95.997V56.324H16.664v39.673" stroke="url(#b)" stroke-width="1.5"/><path stroke="#fff" stroke-width="1.5" d="M56.328 16.691h39.666v39.673H56.328z"/><path d="M-23 16.691h39.666v39.673H-23" stroke="url(#c)" stroke-width="1.5"/><g filter="url(#d)"><path fill="#fff" d="M16 16h40v41H16z"/></g><path fill-rule="evenodd" clip-rule="evenodd" d="M30.57 27.298c-3.737 1.13-5.42 4.996-4.16 8.667a11.607 11.607 0 0 0 2.978 4.468c.371.339.817.71 1.337 1.114l.544.415.292.216.62.449.67.471.72.494.772.517a3 3 0 0 0 3.317 0l.387-.258c.258-.172.507-.341.748-.506l.696-.483.33-.233.62-.449c.099-.072.196-.144.29-.215l.545-.415.494-.392a18.8 18.8 0 0 0 .838-.717 11.6 11.6 0 0 0 2.98-4.454c1.265-3.691-.424-7.559-4.161-8.689l-.268-.074a6.998 6.998 0 0 0-5.036.595l-.125.069-.125-.07a6.99 6.99 0 0 0-5.304-.52zm4.852 2.588a1 1 0 0 0 1.151 0 4.977 4.977 0 0 1 4.276-.673c2.595.784 3.762 3.457 2.854 6.103a9.57 9.57 0 0 1-2.452 3.656c-.332.303-.743.644-1.232 1.022l-.514.39-.276.205-.592.427-.642.451-.693.475-.75.502a1 1 0 0 1-1.103-.001l-.378-.253-.72-.486-.667-.464-.618-.44a44.635 44.635 0 0 1-.567-.415l-.515-.392a23.92 23.92 0 0 1-.878-.71l-.362-.32a9.577 9.577 0 0 1-2.45-3.67c-.901-2.626.26-5.296 2.854-6.08a4.968 4.968 0 0 1 4.274.673z" fill="#391484"/><path fill-rule="evenodd" clip-rule="evenodd" d="M38.03 31.755a1 1 0 0 1 1.215-.724c1.494.377 2.604 1.487 2.75 2.864a1 1 0 0 1-1.97.326l-.02-.115c-.05-.482-.52-.952-1.25-1.136a1 1 0 0 1-.724-1.215z" fill="#76538B" opacity=".5"/></g><defs><linearGradient id="b" x1="36.497" y1="56.324" x2="36.497" y2="95.997" gradientUnits="userSpaceOnUse"><stop stop-color="#fff"/><stop offset="1" stop-color="#fff" stop-opacity="0"/></linearGradient><linearGradient id="c" x1="2.772" y1="36.817" x2="-16" y2="36.817" gradientUnits="userSpaceOnUse"><stop stop-color="#fff"/><stop offset="1" stop-color="#fff" stop-opacity="0"/></linearGradient><clipPath id="a"><path fill="#fff" d="M0 0h72v72H0z"/></clipPath><filter id="d" x="-14" y="16" width="100" height="101" filterUnits="userSpaceOnUse" color-interpolation-filters="sRGB"><feFlood flood-opacity="0" result="BackgroundImageFix"/><feColorMatrix in="SourceAlpha" values="0 0 0 0 0 0 0 0 0 0 0 0 0 0 0 0 0 0 127 0" result="hardAlpha"/><feOffset dy="30"/><feGaussianBlur stdDeviation="15"/><feColorMatrix values="0 0 0 0 0.027451 0 0 0 0 0.117647 0 0 0 0 0.341176 0 0 0 0.05 0"/><feBlend in2="BackgroundImageFix" result="effect1_dropShadow_3055_3216"/><feBlend in="SourceGraphic" in2="effect1_dropShadow_3055_3216" result="shape"/></filter></defs></svg>